<?xml version="1.0" standalone="no"?>
<!DOCTYPE svg PUBLIC "-//W3C//DTD SVG 20010904//EN"
 "http://www.w3.org/TR/2001/REC-SVG-20010904/DTD/svg10.dtd">
<svg version="1.0" xmlns="http://www.w3.org/2000/svg"
 width="516.000000pt" height="516.000000pt" viewBox="0 0 516.000000 516.000000"
 preserveAspectRatio="xMidYMid meet">
<metadata>
Created by potrace 1.11, written by Peter Selinger 2001-2013
</metadata>
<g transform="translate(0.000000,516.000000) scale(0.100000,-0.100000)"
fill="#000000" stroke="none">
<path d="M2111 5064 c-13 -9 -36 -36 -51 -60 l-28 -44 -6 30 c-9 49 -34 37
-66 -32 -17 -35 -30 -69 -30 -75 0 -19 -17 -16 -25 5 -6 16 -7 16 -21 -2 -8
-11 -14 -26 -14 -34 0 -8 -14 -43 -31 -79 -31 -66 -85 -128 -123 -143 -21 -9
-21 -9 1 -9 12 -1 24 3 28 9 3 5 13 6 21 3 13 -5 13 -7 2 -14 -7 -5 -8 -9 -3
-9 6 0 17 5 25 10 11 7 11 10 2 10 -7 0 -10 5 -7 10 5 8 11 7 21 -1 12 -10 13
-9 8 6 -6 14 -4 16 7 10 12 -7 12 -6 1 7 -14 18 -6 51 11 41 6 -4 8 0 4 10 -3
8 0 21 8 27 8 6 17 25 20 41 4 16 11 27 16 24 5 -4 6 1 3 9 -3 8 -1 23 5 33 9
15 10 16 11 2 0 -9 6 -22 14 -28 12 -10 17 -8 27 11 7 13 12 27 11 31 -3 9 39
129 43 125 2 -2 5 -17 8 -35 11 -67 21 -68 52 -3 16 33 38 68 48 78 19 17 20
16 5 -12 -14 -28 -12 -65 9 -126 6 -18 17 6 27 60 l6 35 -14 -30 -14 -30 -1
38 c-1 21 6 54 14 74 8 19 15 37 15 39 0 9 -17 3 -39 -12z m-317 -409 c-10 -8
-23 -15 -28 -15 -6 0 -1 7 10 15 10 8 23 15 28 15 6 0 1 -7 -10 -15z"/>
<path d="M2181 4967 c-1 -24 7 -50 19 -67 11 -15 17 -30 15 -34 -3 -3 -2 -4 1
-2 3 3 23 -4 43 -15 31 -16 62 -20 167 -22 79 -2 138 -8 152 -16 25 -13 204
-12 195 2 -2 4 -40 7 -84 7 -45 0 -94 6 -112 14 -21 8 -76 14 -154 14 -159 1
-206 23 -229 109 l-13 48 0 -38z"/>
<path d="M2990 4789 c-34 -6 -34 -6 -5 -8 22 -1 26 -4 17 -13 -22 -22 -12 -33
30 -32 24 1 55 -3 71 -8 25 -9 26 -11 11 -23 -21 -15 -10 -36 19 -34 12 1 36
1 52 0 22 -1 26 -4 15 -10 -8 -6 -19 -7 -25 -5 -5 3 0 -3 12 -14 12 -11 19
-23 15 -27 -4 -5 -2 -5 5 -1 7 4 33 -3 58 -14 48 -22 62 -36 19 -20 -41 16
-54 12 -54 -15 0 -14 5 -25 10 -25 6 0 10 -5 10 -11 0 -5 -5 -7 -12 -3 -8 5
-9 0 -4 -17 4 -13 8 -29 8 -36 1 -7 5 -10 9 -8 3 3 12 -2 19 -10 7 -8 9 -15 5
-15 -5 0 2 -9 15 -20 27 -23 15 -27 -16 -5 -20 13 -22 12 -33 -13 -7 -15 -9
-24 -5 -20 4 5 16 -6 26 -23 20 -33 19 -49 -2 -24 -7 8 -18 15 -25 15 -8 0
-14 16 -17 40 -2 22 0 40 5 40 5 0 2 7 -7 15 -11 11 -12 23 -6 46 8 26 7 29
-5 19 -12 -10 -18 -10 -31 1 -14 12 -14 14 -1 24 22 16 7 33 -33 37 l-35 4 28
13 c41 21 33 31 -24 31 l-51 0 15 24 c19 29 13 38 -21 29 -21 -5 -23 -3 -17
16 5 18 2 21 -24 21 -16 0 -33 -4 -36 -10 -11 -17 -25 -11 -25 10 0 30 -27 36
-53 12 l-23 -21 -52 30 c-48 27 -81 31 -67 9 3 -5 -12 -3 -34 5 -48 17 -63 4
-29 -25 13 -11 17 -19 11 -20 -7 0 -13 5 -13 11 0 5 -4 8 -9 5 -5 -4 -30 3
-55 14 -40 17 -224 40 -187 24 17 -8 -77 -37 -121 -38 -14 -1 -24 -4 -22 -7 2
-3 -9 -12 -24 -19 l-27 -13 28 -11 c15 -5 27 -12 27 -16 0 -8 -71 -45 -87 -45
-7 0 -12 -3 -10 -6 1 -3 -15 -25 -35 -49 -21 -24 -36 -45 -34 -47 2 -3 21 0
42 6 21 6 39 9 41 7 2 -1 -9 -13 -24 -27 -21 -19 -25 -20 -20 -6 4 11 3 16 -4
12 -6 -4 -8 -14 -5 -22 4 -9 1 -22 -5 -29 -9 -11 -7 -14 11 -14 13 0 20 -5 17
-12 -2 -7 -10 -12 -16 -10 -7 1 -9 -2 -6 -8 4 -6 -1 -21 -12 -32 -18 -21 -18
-21 12 -16 31 4 31 4 20 -29 -5 -18 -14 -33 -18 -33 -5 0 -5 6 -1 13 4 7 3 9
-2 4 -5 -5 -9 -12 -10 -15 0 -4 -4 -15 -8 -25 -5 -10 -3 -23 4 -32 10 -11 9
-18 -4 -30 -9 -9 -16 -22 -16 -29 0 -7 -9 -21 -20 -31 -11 -10 -20 -24 -20
-32 0 -8 -3 -12 -8 -9 -4 2 -6 -14 -4 -37 2 -35 1 -39 -9 -23 -7 11 -9 38 -6
67 6 51 52 159 68 159 5 0 8 3 7 8 -1 4 2 18 6 31 6 19 4 28 -10 38 -10 7 -13
13 -8 13 5 0 10 9 10 20 0 11 -4 20 -9 20 -4 0 -5 5 -2 10 4 6 9 8 13 6 4 -2
7 6 7 19 0 12 -5 21 -11 18 -35 -13 -11 77 35 131 15 18 15 19 0 13 -9 -3 -23
0 -30 6 -10 9 -10 8 1 -6 12 -16 8 -23 -32 -65 -48 -49 -80 -111 -92 -176 -4
-21 -28 -80 -54 -130 -42 -80 -47 -99 -49 -161 -1 -38 -2 -76 -2 -82 -1 -16
-37 -53 -51 -53 -13 0 -12 219 1 280 13 62 22 140 16 140 -5 0 -28 -71 -44
-135 -3 -11 -6 -87 -8 -170 -1 -82 -7 -163 -12 -180 l-10 -30 -19 32 c-23 40
-39 42 -58 6 -14 -27 -14 -27 -10 22 3 28 7 88 9 135 l4 85 -12 -75 -12 -75
-19 60 c-10 33 -29 74 -43 92 -20 26 -22 35 -13 52 6 12 14 21 18 21 4 0 8 10
9 21 2 23 10 35 18 27 3 -3 1 -17 -5 -32 -13 -34 -13 -83 -1 -91 5 -3 16 4 24
15 7 11 17 17 22 12 5 -4 5 -2 2 4 -3 5 11 30 32 54 l37 43 2 -44 c4 -58 12
-64 12 -8 0 24 7 56 14 72 24 45 2 31 -68 -43 -52 -55 -66 -66 -66 -49 0 31
25 79 72 134 51 62 111 155 105 162 -3 2 -14 0 -25 -6 -12 -6 -29 -11 -39 -11
-12 1 -8 5 12 14 17 7 41 23 54 35 13 11 27 19 31 16 4 -2 30 18 58 45 29 26
66 53 82 59 l30 10 -28 -42 c-34 -50 -62 -102 -62 -117 0 -5 7 -10 15 -10 11
0 9 -10 -10 -47 -28 -57 -41 -108 -49 -183 l-5 -55 13 55 c15 66 36 131 46
145 4 6 22 36 39 68 32 58 34 81 4 70 -24 -9 44 84 83 113 17 13 36 24 42 24
6 0 14 5 17 11 9 13 -88 6 -107 -7 -7 -6 -30 -19 -52 -29 -21 -11 -43 -28 -49
-37 -9 -13 -14 -14 -25 -6 -10 9 -17 7 -30 -7 -16 -18 -16 -18 0 -6 18 13 42
6 32 -10 -3 -5 -9 -7 -14 -4 -5 3 -12 1 -15 -5 -5 -8 -12 -7 -23 2 -12 8 -11
5 2 -10 14 -17 16 -21 5 -17 -9 3 -30 -7 -49 -24 -19 -16 -38 -27 -43 -24 -4
2 -13 0 -20 -5 -7 -5 -25 -13 -42 -17 -16 -4 -24 -10 -17 -12 6 -3 9 -10 6
-16 -5 -8 -2 -8 7 1 19 17 32 15 25 -4 -6 -14 -4 -15 10 -4 13 12 17 11 25 -1
7 -11 9 -11 9 4 0 9 7 17 16 17 13 0 11 -7 -10 -32 -15 -18 -43 -57 -63 -85
-19 -29 -40 -50 -45 -47 -4 3 -8 2 -7 -3 4 -20 -2 -34 -11 -28 -6 4 -8 16 -5
28 3 12 -8 -6 -25 -40 -17 -35 -35 -63 -39 -63 -5 0 -12 21 -16 46 -6 44 -5
48 25 76 32 28 36 53 5 28 -9 -7 -19 -10 -23 -6 -4 4 0 13 9 19 9 7 14 17 12
23 -2 5 22 18 53 28 40 13 53 21 43 26 -7 5 -16 6 -19 1 -7 -9 -82 -31 -109
-31 -29 0 -26 14 7 27 l27 11 -27 1 c-16 1 -28 5 -28 11 0 5 -6 7 -13 4 -7 -2
-24 7 -37 21 -25 27 -21 32 11 14 49 -26 201 -3 220 33 9 16 7 17 -16 8 -34
-13 -88 -13 -80 0 3 5 0 8 -7 5 -14 -6 -68 39 -68 56 0 6 4 7 10 4 6 -4 7 1 3
11 -4 11 -8 13 -11 6 -2 -7 -8 -9 -14 -6 -5 3 -2 -8 7 -25 18 -35 68 -71 100
-71 17 0 17 -2 5 -10 -22 -14 -102 -12 -148 4 -22 8 -42 12 -45 10 -11 -12 7
-41 39 -63 23 -16 31 -27 23 -31 -8 -6 -8 -9 2 -13 11 -4 11 -6 1 -6 -22 -2
-2 -21 21 -21 19 -1 20 -2 6 -13 -9 -7 -36 -43 -61 -82 -25 -40 -63 -82 -86
-99 -23 -16 -39 -33 -35 -39 3 -6 1 -7 -5 -3 -11 6 -97 -43 -89 -50 2 -2 30 5
62 16 32 11 60 20 62 20 2 0 -11 -25 -28 -55 -36 -64 -25 -71 39 -24 23 17 42
29 42 27 0 -1 -9 -32 -20 -66 -21 -68 -27 -158 -10 -147 6 3 10 14 10 24 0 18
44 108 61 126 7 7 9 -25 7 -92 -2 -56 -1 -99 2 -96 3 3 10 -17 16 -44 6 -30
15 -48 25 -48 7 0 14 5 14 10 2 32 17 85 25 85 5 0 6 7 3 17 -4 10 -2 14 4 10
6 -4 17 -40 23 -80 16 -95 39 -177 50 -177 4 0 11 19 15 43 4 23 12 62 17 86
l11 44 14 -54 c10 -41 25 -66 61 -101 25 -27 54 -48 62 -48 25 0 30 -10 18
-36 -15 -33 -6 -39 32 -19 42 22 47 14 16 -20 -30 -32 -33 -45 -11 -45 12 0
14 -7 9 -27 -15 -66 -93 -163 -130 -163 -19 0 -18 -26 2 -34 9 -3 36 -6 60 -6
24 0 44 -4 44 -8 0 -5 -14 -18 -31 -31 -37 -27 -34 -43 10 -52 31 -6 59 -2
102 16 14 5 17 -4 23 -55 10 -84 23 -110 56 -110 52 0 55 62 11 230 -13 49
-20 97 -17 115 4 22 3 26 -4 15 -7 -10 -10 10 -10 67 0 45 5 85 10 88 6 4 8
10 5 15 -7 11 35 111 44 106 3 -2 7 6 8 17 1 12 8 56 17 97 23 113 20 139 -20
224 -20 42 -34 79 -32 82 3 3 13 -13 21 -34 14 -35 94 -118 104 -108 2 2 25
-3 50 -10 25 -8 66 -14 90 -14 32 0 43 -4 43 -15 0 -8 5 -15 12 -15 6 0 4 -7
-5 -18 -21 -23 -21 -27 0 -47 14 -14 14 -18 2 -26 -8 -5 -28 -9 -46 -9 -71 0
-103 -32 -68 -66 21 -22 19 -44 -5 -44 -29 0 -34 -23 -14 -61 15 -29 15 -34 2
-43 -13 -8 -13 -15 -2 -53 l13 -44 -45 -47 c-25 -26 -52 -60 -60 -75 -16 -30
-15 -73 2 -70 6 1 8 -22 6 -63 -3 -47 0 -70 12 -89 9 -13 16 -42 16 -64 0 -22
4 -42 9 -45 15 -10 40 5 47 27 6 18 9 15 30 -24 12 -25 41 -62 65 -83 42 -39
142 -90 162 -83 6 2 -10 26 -36 54 -53 57 -60 73 -19 46 15 -11 40 -24 55 -31
35 -15 141 -16 166 -1 17 11 17 13 -3 50 -19 35 -20 41 -6 66 25 44 35 37 32
-19 -5 -99 38 -107 59 -11 17 79 23 90 65 103 36 12 152 8 190 -7 11 -4 15 -3
11 4 -4 6 5 13 21 16 16 3 34 18 45 36 10 17 22 29 28 26 5 -3 6 2 3 12 -5 16
-4 16 10 -1 18 -22 21 -14 6 15 -10 17 -7 19 33 19 23 0 48 5 55 12 9 9 12 7
12 -11 0 -20 -4 -22 -27 -17 -26 5 -27 5 -5 -6 12 -6 22 -18 22 -27 1 -11 5
-8 15 9 9 16 13 38 9 61 -3 21 -1 39 3 42 5 3 10 25 12 48 1 23 4 47 7 51 9
14 15 59 14 101 0 20 4 37 10 37 5 0 10 -6 10 -12 0 -7 8 -22 16 -33 16 -19
16 -19 9 5 -4 14 -10 31 -13 39 -4 10 1 11 17 6 20 -6 22 -5 12 13 -6 12 -17
24 -24 28 -8 5 -7 2 2 -9 12 -15 11 -17 -9 -17 -19 0 -21 4 -14 32 8 40 11
250 3 237 -3 -5 -11 7 -17 28 -11 38 -11 38 8 16 22 -27 26 -28 34 -8 3 8 -3
31 -14 50 -25 45 -25 54 1 48 16 -4 20 -2 17 8 -3 8 -15 13 -29 11 -33 -5 -34
-8 -17 -34 18 -30 39 -78 33 -78 -7 0 -46 80 -56 113 -7 25 -6 28 14 25 14 -2
21 2 19 10 -1 8 2 11 7 7 6 -3 8 -13 5 -23 -4 -12 -3 -13 3 -5 7 9 16 6 36
-13 38 -35 34 -17 -5 24 l-33 34 43 -7 c23 -4 42 -4 42 -2 0 3 -13 15 -29 27
-21 14 -32 17 -37 9 -4 -7 -3 -9 4 -5 6 3 13 2 17 -4 3 -5 -1 -10 -9 -10 -8 0
-18 5 -22 12 -5 8 -11 6 -19 -6 -11 -15 -14 -13 -24 15 -14 40 -14 44 2 32 6
-6 20 -13 30 -16 15 -6 13 -1 -7 24 -38 44 -58 87 -61 128 -2 20 -6 65 -10
100 -5 52 -4 62 7 54 7 -5 23 -13 35 -15 20 -5 21 -4 10 21 -6 14 -15 32 -20
39 -16 20 0 25 25 8 50 -35 51 -8 3 60 -27 38 -32 50 -20 52 17 4 20 18 5 27
-5 3 -15 15 -21 27 -11 20 -9 20 26 14 34 -7 36 -5 33 15 -3 23 -9 27 -71 55
-37 16 -37 17 -20 37 10 11 13 17 6 14 -6 -4 -14 -3 -18 3 -3 5 -20 10 -37 10
-26 0 -29 2 -18 15 10 12 8 16 -15 25 -16 6 -54 13 -87 17 -55 6 -58 7 -43 23
20 22 10 28 -35 19z"/>
<path d="M2920 4780 c0 -5 7 -10 16 -10 8 0 12 5 9 10 -3 6 -10 10 -16 10 -5
0 -9 -4 -9 -10z"/>
<path d="M2026 4746 c-25 -38 -57 -66 -107 -91 -45 -23 -95 -66 -131 -113 -10
-12 -15 -22 -11 -22 4 0 2 -5 -5 -12 -14 -14 -16 -28 -2 -28 5 0 19 20 32 45
18 34 45 61 117 113 89 63 141 115 129 127 -3 3 -13 -6 -22 -19z"/>
<path d="M3028 4723 c7 -3 16 -2 19 1 4 3 -2 6 -13 5 -11 0 -14 -3 -6 -6z"/>
<path d="M1643 4613 c9 -2 25 -2 35 0 9 3 1 5 -18 5 -19 0 -27 -2 -17 -5z"/>
<path d="M1640 4430 c-9 -6 -10 -10 -3 -10 6 0 15 5 18 10 8 12 4 12 -15 0z"/>
<path d="M1735 4359 c-4 -6 -5 -12 -2 -15 2 -3 7 2 10 11 7 17 1 20 -8 4z"/>
<path d="M3280 4115 c0 -5 5 -17 10 -25 5 -8 10 -10 10 -5 0 6 -5 17 -10 25
-5 8 -10 11 -10 5z"/>
<path d="M1290 3874 c-25 -20 -62 -45 -82 -55 -50 -25 -48 -39 5 -39 l42 -1
-27 -24 c-16 -13 -28 -27 -28 -30 0 -9 67 -6 97 5 22 8 13 -4 -40 -53 -37 -35
-64 -67 -60 -70 10 -11 56 -8 106 7 26 8 47 10 47 5 0 -4 -14 -25 -31 -46 -20
-24 -16 -21 10 7 61 66 71 79 71 90 0 12 -17 13 -24 1 -11 -17 -96 -51 -127
-51 l-32 0 39 29 c54 40 119 109 111 118 -4 4 -29 -1 -55 -10 -70 -25 -76 -21
-29 22 48 46 46 58 -7 36 -66 -28 -72 -13 -13 28 49 34 87 67 76 67 -2 0 -24
-16 -49 -36z"/>
<path d="M2182 3781 c-19 -12 -39 -92 -32 -126 8 -35 15 -22 25 45 3 24 11 50
16 57 14 17 7 35 -9 24z"/>
<path d="M1611 3734 c0 -11 3 -14 6 -6 3 7 2 16 -1 19 -3 4 -6 -2 -5 -13z"/>
<path d="M1736 3653 c-6 -14 -5 -15 5 -6 7 7 10 15 7 18 -3 3 -9 -2 -12 -12z"/>
<path d="M1457 3573 c-40 -121 -50 -322 -21 -391 22 -53 32 -31 47 108 2 14
10 37 18 53 14 26 15 25 17 -44 1 -39 4 -75 8 -80 9 -15 24 0 24 24 0 23 88
122 99 112 3 -4 1 -9 -4 -13 -6 -4 -11 -24 -11 -46 -1 -24 2 -33 7 -25 6 10 9
5 9 -16 0 -20 -3 -26 -9 -17 -5 8 -10 -13 -14 -56 -4 -45 -13 -82 -28 -107
-15 -25 -18 -36 -9 -33 28 9 53 57 59 115 7 57 7 57 15 23 10 -42 36 -100 54
-118 17 -18 15 -11 -8 43 -11 26 -18 51 -15 55 3 5 0 10 -7 12 -16 6 -22 167
-7 205 5 14 7 28 4 31 -5 5 -58 -29 -112 -74 l-32 -26 3 45 c2 25 6 50 10 55
3 6 1 14 -5 17 -13 9 -68 -51 -75 -82 -4 -13 -10 -21 -14 -18 -5 3 -6 -5 -3
-17 5 -18 3 -21 -7 -11 -10 9 -10 34 -1 125 7 62 17 130 22 152 15 56 4 55
-14 -1z"/>
<path d="M3330 3544 c0 -8 5 -12 10 -9 6 4 8 11 5 16 -9 14 -15 11 -15 -7z"/>
<path d="M2162 3525 c-36 -42 -50 -86 -44 -146 4 -39 7 -49 13 -34 4 11 8 34
8 52 1 18 12 58 26 89 14 32 24 59 22 60 -2 2 -13 -7 -25 -21z"/>
<path d="M1821 3373 c-10 -29 -25 -47 -59 -68 -32 -20 -41 -31 -30 -33 9 -2
35 8 57 22 30 19 42 34 47 60 9 52 0 64 -15 19z"/>
<path d="M3311 3372 c2 -16 -1 -36 -7 -43 -6 -8 -14 -48 -17 -90 -4 -42 -9
-85 -13 -95 -5 -15 -4 -16 4 -4 6 8 13 37 17 65 10 85 16 106 27 99 8 -5 9 6
5 34 -6 46 -5 47 24 32 11 -6 19 -7 19 -2 0 6 -8 12 -17 16 -10 3 -24 9 -31
12 -10 5 -13 -2 -11 -24z"/>
<path d="M1199 3353 c-13 -16 -12 -17 4 -4 9 7 17 15 17 17 0 8 -8 3 -21 -13z"/>
<path d="M1270 3333 c-34 -12 -34 -12 -7 -12 l28 -1 -38 -47 c-21 -26 -33 -44
-26 -40 6 4 13 2 15 -4 3 -8 14 -8 41 -1 20 6 37 10 37 9 0 -1 -14 -29 -30
-61 -26 -51 -38 -96 -26 -96 2 0 29 11 61 25 32 14 60 24 62 21 3 -3 -5 -33
-17 -68 -12 -35 -24 -88 -27 -118 -4 -54 -4 -55 14 -34 33 38 137 94 150 81 1
-2 -6 -23 -18 -46 -22 -47 -36 -111 -24 -111 4 0 33 20 63 45 61 50 72 54 72
25 0 -41 -28 -86 -94 -151 -81 -81 -86 -107 -14 -80 13 4 36 11 52 15 l28 7
-26 -45 c-14 -24 -26 -49 -26 -55 0 -15 40 -14 90 4 38 13 42 13 36 -1 -3 -9
-8 -48 -11 -87 -3 -40 -8 -91 -10 -114 -5 -45 9 -59 21 -21 11 34 42 72 75 92
17 10 32 16 34 14 2 -1 -1 -23 -5 -48 -11 -57 -12 -130 -2 -130 4 0 27 20 51
44 30 31 39 46 30 51 -6 5 -10 4 -7 -1 3 -5 -12 -26 -33 -47 l-38 -37 3 27 c2
16 4 49 5 75 0 26 7 53 15 61 21 21 4 42 -22 28 -11 -6 -29 -8 -39 -5 -11 4
-14 2 -7 -3 7 -5 -1 -20 -24 -42 l-35 -35 7 45 c3 24 9 64 11 88 3 23 10 51
15 61 15 29 -2 31 -65 9 -31 -11 -59 -18 -62 -15 -3 2 9 25 26 50 17 24 31 49
31 55 0 6 -17 10 -39 8 -21 -1 -37 -5 -35 -8 3 -6 -63 -29 -82 -29 -4 0 13 13
38 29 25 16 49 34 52 40 4 6 11 9 16 6 4 -3 7 3 6 13 0 9 4 16 11 15 8 -2 10
4 6 14 -5 12 -3 14 7 8 9 -5 11 -4 6 3 -7 12 10 52 28 64 8 5 7 8 -2 8 -10 0
-10 5 -2 20 8 14 8 20 0 20 -6 0 -8 5 -5 10 9 15 -23 24 -39 11 -7 -6 -16 -8
-19 -4 -4 3 -7 1 -7 -6 0 -7 -5 -9 -12 -5 -6 4 -8 3 -5 -3 8 -12 -30 -49 -40
-40 -3 4 -1 7 5 7 7 0 12 9 12 20 0 11 7 23 15 26 8 4 13 10 10 14 -7 11 5 41
14 36 4 -3 7 7 6 22 0 34 -23 32 -100 -9 -31 -16 -61 -27 -67 -23 -6 4 -8 3
-5 -3 4 -6 -1 -17 -10 -24 -15 -12 -16 -12 -10 4 4 10 7 28 7 38 0 11 4 18 9
15 5 -4 7 2 5 12 -3 9 8 44 25 76 16 33 28 63 25 68 -5 8 -95 -25 -132 -49
-23 -14 -24 -14 -17 9 11 35 45 100 62 116 22 22 9 25 -45 8 -28 -8 -53 -12
-56 -9 -3 4 10 26 30 50 20 24 34 47 32 51 -2 4 -19 2 -38 -5z"/>
<path d="M1170 3329 c0 -5 9 -9 20 -9 11 0 20 2 20 4 0 2 -9 6 -20 9 -11 3
-20 1 -20 -4z"/>
<path d="M2091 3204 c0 -11 3 -14 6 -6 3 7 2 16 -1 19 -3 4 -6 -2 -5 -13z"/>
<path d="M3185 3126 c-16 -12 -16 -14 -1 -42 14 -24 16 -25 12 -6 -4 20 -1 22
17 16 22 -7 22 -7 3 15 -17 18 -17 21 -3 15 9 -3 17 -4 17 -1 0 12 -30 14 -45
3z"/>
<path d="M3052 3038 c-8 -10 -5 -13 13 -13 13 0 21 3 19 7 -2 4 8 9 23 11 24
3 22 4 -8 6 -20 0 -41 -5 -47 -11z"/>
<path d="M3150 3040 c8 -5 22 -10 30 -10 13 0 13 1 0 10 -8 5 -22 10 -30 10
-13 0 -13 -1 0 -10z"/>
<path d="M1845 3000 c7 -12 -15 -50 -49 -88 -22 -24 -64 -48 -130 -76 -36 -15
-38 -15 -31 2 5 13 3 14 -5 6 -9 -9 -9 -17 -1 -33 14 -26 73 -28 146 -7 35 11
52 12 65 4 14 -9 24 -8 45 6 27 18 27 18 20 -6 -15 -48 -71 -122 -87 -112 -5
3 -7 1 -6 -4 2 -5 -12 -21 -30 -36 -17 -15 -30 -32 -26 -37 7 -13 51 -11 59 2
4 6 14 8 22 5 9 -4 11 -2 7 6 -5 8 -2 9 10 5 10 -4 15 -3 11 3 -3 6 0 10 8 10
8 0 35 18 60 40 51 46 54 46 60 23 4 -17 5 -17 6 0 0 10 5 16 10 13 4 -3 8 8
7 24 -1 29 -19 40 -31 20 -4 -6 -12 -7 -18 -4 -7 4 -9 4 -5 -1 8 -8 -26 -42
-77 -76 l-30 -21 24 21 c13 12 20 21 16 21 -5 0 -1 8 7 18 18 21 58 126 58
152 0 25 -20 36 -31 19 -8 -12 -11 -12 -20 1 -8 12 -9 11 -5 -5 4 -14 -1 -24
-15 -33 -19 -12 -20 -11 -14 7 9 28 -13 36 -34 12 -18 -21 -62 -42 -111 -55
-17 -4 -12 0 13 14 43 23 96 78 97 98 0 7 4 11 9 8 5 -4 7 4 4 16 -4 22 -3 22
11 -2 8 -14 15 -21 16 -17 0 11 -29 67 -36 67 -3 0 -2 -5 1 -10z"/>
<path d="M2975 2991 c11 -13 34 -32 50 -42 l30 -19 -52 0 c-67 0 -70 -18 -11
-60 l41 -30 -34 6 c-19 3 -50 10 -69 15 -19 5 -38 5 -42 1 -11 -11 42 -91 100
-151 26 -28 46 -51 44 -51 -3 0 -33 16 -68 35 -34 19 -69 35 -78 35 -31 0 -15
-52 32 -102 34 -37 26 -35 -53 8 -36 20 -68 34 -71 31 -23 -22 48 -126 78
-114 9 4 8 6 -4 6 -17 1 -44 38 -40 54 1 5 -2 6 -8 2 -5 -3 -10 1 -10 11 0 15
2 15 28 -2 73 -48 182 -82 182 -56 0 6 -25 35 -56 66 l-56 55 65 -32 c36 -17
64 -34 62 -37 -2 -4 9 -4 26 -2 16 2 29 9 29 16 -1 6 -37 49 -80 95 -44 47
-80 88 -80 92 0 3 34 6 77 5 88 -1 103 12 43 39 -50 23 -71 45 -43 45 11 0 35
5 53 11 l32 12 -37 13 c-20 7 -51 25 -68 41 -24 21 -27 22 -12 4z"/>
<path d="M3058 2993 c7 -3 16 -2 19 1 4 3 -2 6 -13 5 -11 0 -14 -3 -6 -6z"/>
<path d="M2143 2893 c-36 -86 -25 -217 27 -308 37 -64 97 -135 116 -135 18 0
18 9 0 29 -8 9 -17 32 -21 51 l-7 35 29 -27 c16 -16 33 -28 37 -28 4 0 5 33 1
73 -7 70 -7 71 11 56 11 -9 30 -22 44 -28 21 -11 20 -8 -8 19 -20 18 -31 37
-28 45 3 8 0 14 -7 12 -15 -3 -22 53 -8 63 8 4 4 20 -9 49 -12 24 -18 51 -15
62 4 12 1 21 -9 25 -9 3 -16 16 -17 28 0 12 -3 15 -6 8 -10 -25 8 -119 26
-139 15 -16 16 -21 4 -31 -11 -11 -20 -96 -13 -142 1 -10 -2 -12 -8 -5 -6 6
-12 21 -14 34 -1 14 -8 26 -15 28 -12 4 -28 -50 -24 -79 4 -28 -17 -21 -33 10
-22 43 -56 166 -56 203 0 19 7 55 15 82 17 56 10 62 -12 10z"/>
<path d="M2470 2756 c0 -2 9 -24 20 -50 19 -43 83 -116 101 -116 14 0 21 20 7
20 -13 1 -62 63 -86 112 -11 22 -42 47 -42 34z"/>
<path d="M2109 2521 c-19 -23 -22 -37 -23 -98 0 -29 -4 -49 -10 -46 -5 3 -6 1
-2 -6 4 -6 12 -9 17 -6 5 4 9 1 9 -6 0 -6 12 -38 27 -71 31 -69 49 -64 32 9
-7 28 -9 63 -5 78 l7 28 20 -39 c12 -22 31 -47 42 -56 37 -30 39 -20 4 16 -35
35 -52 87 -33 106 5 5 6 13 3 17 -11 10 -50 -33 -63 -70 l-11 -32 -12 40 c-15
54 -14 80 5 116 18 36 15 47 -7 20z"/>
<path d="M2015 2496 c-50 -56 -65 -149 -35 -210 21 -41 38 -44 32 -6 -2 16 -1
37 2 47 6 14 11 10 29 -19 12 -20 33 -45 47 -56 l26 -20 -1 24 c-1 13 -5 27
-10 31 -4 5 -5 3 -1 -4 3 -6 3 -14 -2 -17 -10 -6 -44 48 -41 66 8 62 -14 75
-47 27 l-22 -31 -1 57 c0 43 5 64 21 86 21 28 23 49 3 25z"/>
<path d="M2984 2466 c-4 -18 -1 -49 9 -80 18 -57 18 -57 -48 34 -16 22 -34 39
-40 37 -16 -6 -17 -79 -2 -162 14 -74 14 -76 -4 -59 -10 9 -16 21 -13 25 3 5
1 9 -5 9 -6 0 -20 23 -32 50 -33 76 -55 66 -94 -42 l-23 -62 -8 64 c-5 36 -8
70 -8 76 2 16 -55 0 -76 -21 -14 -15 -12 -15 15 -1 43 22 54 6 62 -92 3 -45 9
-82 13 -82 3 0 17 30 29 68 13 37 29 78 36 92 l13 25 19 -34 c32 -58 84 -122
96 -118 12 4 12 9 2 142 -6 79 -6 80 12 55 41 -56 76 -90 94 -90 24 0 24 17
-1 58 -11 18 -20 41 -20 52 0 18 2 17 43 -5 23 -14 50 -25 59 -25 15 0 12 8
-15 44 -17 23 -34 42 -36 40 -2 -2 2 -10 8 -18 14 -16 6 -40 -10 -30 -5 3 -6
10 -3 16 4 6 2 8 -4 4 -6 -3 -22 8 -36 26 l-25 32 -7 -28z m122 -73 c-7 -7
-26 7 -26 19 0 6 6 6 15 -2 9 -7 13 -15 11 -17z"/>
<path d="M2961 2464 c0 -11 3 -14 6 -6 3 7 2 16 -1 19 -3 4 -6 -2 -5 -13z"/>
<path d="M1502 2417 c-74 -81 -117 -212 -110 -337 l4 -68 -36 -5 c-19 -3 -95
-11 -167 -18 -105 -10 -133 -15 -133 -27 0 -12 10 -13 48 -9 127 16 284 29
288 24 3 -3 12 -29 19 -58 12 -46 12 -56 0 -75 -16 -25 -34 -29 -217 -46 -100
-9 -138 -16 -138 -25 0 -16 4 -16 165 1 72 8 131 13 133 12 1 -2 -21 -32 -50
-68 -29 -36 -58 -73 -63 -83 -9 -14 -82 -30 -167 -35 -5 0 -8 -7 -8 -15 0 -8
6 -13 13 -11 6 3 41 7 77 10 l65 6 0 -84 0 -84 -62 -7 c-43 -4 -63 -11 -63
-20 0 -10 10 -12 35 -9 109 13 99 16 124 -31 14 -26 43 -58 72 -78 l50 -35
-78 -6 c-157 -13 -193 -18 -193 -28 0 -7 26 -8 78 -4 84 8 455 25 460 21 1 -1
8 -29 14 -62 9 -48 8 -65 -3 -88 -17 -36 -73 -75 -107 -75 l-26 0 27 28 c68
71 -3 182 -89 140 -59 -28 -70 -121 -20 -165 58 -49 178 -34 232 30 25 30 26
35 22 117 l-5 86 256 27 c291 31 296 31 260 12 -53 -29 -76 -98 -42 -126 22
-19 91 -16 132 5 56 30 81 63 81 111 l0 43 46 7 c25 3 48 4 51 2 2 -3 7 -24
10 -46 3 -23 11 -41 18 -41 13 0 75 63 92 94 10 18 106 40 111 25 24 -65 136
-59 204 11 l36 39 238 26 c130 14 238 24 239 23 2 -2 6 -28 9 -59 7 -56 7 -56
-18 -52 -32 6 -93 -13 -133 -43 -17 -13 -45 -24 -62 -24 -22 0 -31 -5 -31 -16
0 -12 7 -15 25 -12 20 4 25 1 25 -16 1 -71 94 -82 182 -21 20 13 39 34 43 45
5 16 15 20 46 20 29 0 39 4 39 16 0 14 -7 15 -39 10 l-38 -6 -7 77 c-3 42 -3
80 1 83 8 7 524 63 528 58 1 -2 5 -40 8 -84 l6 -82 -47 -5 c-26 -3 -84 -9
-129 -13 -63 -5 -83 -10 -83 -21 0 -12 11 -13 58 -8 135 14 148 15 120 6 -73
-24 -125 -81 -114 -125 8 -30 55 -50 98 -41 86 19 128 64 128 136 l0 49 35 0
c26 0 35 4 35 16 0 13 -7 15 -34 10 l-34 -7 -7 75 c-4 42 -5 81 -2 89 3 9 56
18 173 30 92 10 170 20 173 22 15 16 -26 17 -162 2 -218 -24 -197 -30 -197 56
l0 74 128 12 c200 19 222 22 222 37 0 14 5 14 -220 -11 -69 -7 -128 -11 -131
-7 -4 4 -9 41 -11 83 l-5 77 101 11 c56 6 131 14 169 17 49 5 67 11 67 21 0
12 -10 14 -47 9 -27 -3 -160 -18 -298 -31 -137 -14 -308 -32 -380 -40 -192
-22 -185 -23 -185 25 0 29 -4 40 -15 40 -11 0 -15 -12 -15 -44 l0 -44 -77 -7
c-43 -4 -150 -15 -238 -25 -88 -9 -161 -17 -161 -16 -1 1 -4 35 -8 77 l-7 76
48 6 c26 4 136 16 243 27 107 11 323 33 480 49 157 17 363 38 458 47 166 17
204 25 190 40 -7 6 -181 -11 -1096 -106 -156 -17 -292 -30 -302 -30 -15 0 -20
10 -26 45 -9 61 -30 53 -27 -9 2 -38 0 -46 -15 -46 -9 0 -125 -11 -257 -25
-132 -14 -412 -43 -622 -65 -211 -22 -397 -40 -414 -40 l-31 0 32 37 c18 20
42 57 53 82 11 26 20 47 22 48 1 2 588 63 1306 138 717 74 1321 137 1342 141
40 6 51 24 15 24 -13 0 -63 -5 -113 -10 -49 -5 -200 -20 -335 -34 -135 -14
-310 -32 -390 -41 -80 -8 -253 -26 -385 -40 -132 -14 -501 -52 -820 -85 -319
-33 -589 -60 -600 -60 -18 0 -20 8 -22 74 -2 82 -36 199 -79 272 -33 56 -37
58 -62 31z m66 -104 c33 -72 36 -164 9 -236 -20 -50 -23 -51 -106 -61 l-44 -4
6 81 c2 46 14 105 25 134 21 55 69 143 78 143 3 0 17 -26 32 -57z m-38 -318
c0 -14 -65 -94 -71 -88 -4 5 -10 25 -14 45 -7 37 -7 37 32 41 21 2 41 4 46 5
4 1 7 0 7 -3z m1358 -201 c-3 -3 -124 -17 -269 -32 l-264 -28 -7 36 c-4 19 -7
54 -7 76 -1 48 -16 43 194 64 61 6 162 17 225 24 l115 12 9 -73 c5 -41 6 -76
4 -79z m-575 19 c3 -43 5 -79 3 -80 -7 -8 -762 -81 -767 -75 -11 13 -51 134
-45 139 5 5 93 16 491 57 234 25 294 31 306 35 3 0 9 -34 12 -76z m1661 35 c5
-22 9 -137 4 -138 -28 -6 -524 -56 -527 -53 -2 1 -6 39 -9 82 l-4 79 43 6
c106 14 398 44 440 45 40 1 47 -2 53 -21z m-562 -120 c3 -43 4 -78 2 -78 -1 0
-109 -11 -240 -25 -130 -14 -238 -24 -239 -23 -1 2 -5 40 -8 84 l-6 81 127 13
c70 7 177 18 237 24 61 7 113 10 116 7 4 -3 9 -41 11 -83z m-1923 -25 l21 -53
-23 -4 c-12 -3 -46 -7 -75 -10 l-53 -5 18 22 c62 78 87 107 89 104 1 -1 12
-26 23 -54z m1406 4 c4 -29 5 -66 3 -82 l-3 -30 -160 -17 c-88 -9 -179 -17
-202 -17 l-43 -1 0 69 c0 55 -3 70 -16 75 -15 6 -16 -2 -11 -72 l5 -79 -51 -6
c-28 -4 -52 -5 -53 -4 0 1 -4 38 -8 83 l-6 81 172 18 c95 9 200 21 233 25 33
4 77 8 97 9 l37 1 6 -53z m-571 -53 c12 -88 8 -113 -16 -118 -13 -3 -117 -14
-233 -26 -115 -11 -229 -23 -252 -26 l-42 -6 -22 51 c-12 29 -37 64 -56 80
l-34 28 173 18 c95 10 225 23 288 30 63 7 131 13 151 14 36 1 36 0 43 -45z
m1666 -49 c0 -41 -3 -75 -7 -75 -5 0 -122 -12 -261 -26 -139 -15 -255 -24
-258 -22 -3 3 -8 37 -11 75 l-6 70 174 17 c96 10 201 22 234 26 33 4 77 8 98
9 l37 1 0 -75z m-2512 -12 c-35 -37 -51 -80 -43 -120 6 -32 5 -33 -27 -33 -18
0 -50 -3 -70 -6 l-38 -7 0 44 c0 24 9 63 20 86 20 44 30 50 105 56 22 2 49 4
59 5 18 2 17 -1 -6 -25z m1942 5 c0 -13 3 -46 6 -74 l6 -51 -213 -22 c-118
-12 -229 -25 -247 -28 l-33 -5 3 78 3 79 195 21 c270 29 280 29 280 2z m-510
-77 l0 -48 -38 0 c-21 0 -48 -4 -61 -8 l-23 -7 21 -19 c29 -27 26 -39 -10 -39
-20 0 -29 -4 -26 -12 2 -7 14 -13 26 -12 12 0 20 -4 18 -10 -2 -6 -15 -11 -28
-11 -18 0 -27 8 -35 34 -11 33 -11 33 -25 13 -10 -13 -31 -23 -63 -27 -47 -7
-48 -7 -36 14 6 12 10 36 8 54 -4 41 -31 46 -87 18 -22 -12 -43 -21 -46 -21
-3 0 -5 20 -5 44 l0 44 118 12 c64 6 144 15 177 20 119 15 115 17 115 -39z
m-1277 15 c31 -13 75 -52 66 -60 -2 -2 -22 -6 -45 -9 -41 -7 -41 -6 -52 32
-18 59 -19 58 31 37z m-63 -63 c0 -12 -66 -30 -76 -21 -8 9 16 61 34 74 15 11
19 9 29 -14 7 -15 12 -32 13 -39z m905 -34 c3 -45 3 -85 -2 -89 -4 -4 -27 -10
-50 -14 -34 -5 -43 -3 -47 11 -4 16 -10 146 -7 166 1 4 23 7 50 7 l48 0 8 -81z
m-141 54 c3 -10 6 -52 7 -93 l2 -75 -34 -3 c-19 -1 -166 -16 -327 -33 -161
-17 -296 -28 -300 -25 -3 4 10 23 30 44 40 42 59 74 68 117 l6 30 249 26 c313
33 293 32 299 12z m-624 -77 c0 -23 -9 -45 -24 -63 l-24 -28 -12 30 c-6 17
-14 42 -17 57 -5 24 -2 27 28 31 19 2 37 5 42 5 4 1 7 -13 7 -32z m1180 24
c12 -8 10 -10 -8 -10 l-23 0 20 -26 c11 -14 17 -32 14 -40 -6 -17 -39 -19 -49
-2 -5 7 -2 9 8 5 26 -10 30 5 7 29 -18 19 -20 26 -9 39 15 17 20 18 40 5z
m-296 -6 c17 -6 21 -41 8 -60 -4 -6 -26 -14 -49 -18 -41 -6 -43 -5 -43 19 0
14 -1 28 -1 33 -2 8 40 32 58 32 6 0 18 -3 27 -6z m-988 -61 c9 -32 18 -61 21
-66 8 -13 -80 -47 -123 -47 -55 0 -122 37 -156 86 -15 21 -27 44 -28 50 0 7
26 14 63 17 l62 6 37 -42 c41 -47 46 -46 22 3 -20 39 -10 50 48 50 37 0 38 -1
54 -57z m974 -40 c-1 -9 -57 -73 -65 -73 -3 0 -5 15 -5 34 0 30 4 35 28 39 15
2 30 5 35 6 4 0 7 -2 7 -6z m795 -43 c3 -5 -3 -10 -15 -10 -11 0 -23 -7 -27
-16 -8 -21 10 -49 31 -48 9 1 16 -3 16 -8 0 -5 -12 -8 -27 -6 -24 2 -29 8 -31
36 -4 35 11 62 34 62 7 0 16 -4 19 -10z m551 -60 c8 0 14 10 14 25 0 14 5 25
10 25 6 0 10 -25 10 -56 0 -34 -4 -53 -10 -49 -5 3 -10 15 -10 26 0 10 -7 19
-15 19 -8 0 -15 -9 -15 -20 0 -11 -3 -20 -7 -20 -5 0 -7 21 -6 47 2 59 5 66
10 31 2 -16 11 -28 19 -28z m-1654 28 c25 -20 31 -54 13 -72 -25 -25 -45 -20
-45 12 0 15 -3 37 -6 50 -7 25 12 30 38 10z"/>
<path d="M2775 1420 c-3 -5 3 -10 15 -10 12 0 18 5 15 10 -3 6 -10 10 -15 10
-5 0 -12 -4 -15 -10z"/>
<path d="M2250 1215 c0 -19 4 -35 10 -35 12 0 24 45 15 59 -13 22 -25 10 -25
-24z"/>
<path d="M1877 2415 c-15 -11 -13 -12 13 -11 31 1 39 10 17 19 -7 3 -20 -1
-30 -8z"/>
<path d="M1903 2340 c0 -30 2 -43 4 -27 2 15 2 39 0 55 -2 15 -4 2 -4 -28z"/>
<path d="M2130 2231 c0 -10 19 -25 25 -20 1 2 -3 10 -11 17 -8 7 -14 8 -14 3z"/>
<path d="M2853 1090 c-38 -23 -53 -48 -53 -90 0 -45 21 -80 79 -128 62 -53 86
-94 71 -122 -14 -27 -69 -27 -103 0 -30 24 -41 25 -57 5 -18 -21 11 -62 58
-82 82 -34 167 5 181 83 12 65 -3 97 -74 159 -70 61 -82 83 -65 115 14 26 40
25 92 -1 46 -24 64 -15 54 26 -13 51 -122 73 -183 35z"/>
<path d="M1841 1086 c-10 -12 -10 -42 -1 -133 7 -65 10 -156 8 -203 l-3 -85
62 -3 c123 -6 207 68 206 183 0 63 -26 154 -53 188 -40 50 -191 87 -219 53z
m129 -71 c47 -25 60 -52 60 -130 0 -87 -26 -151 -65 -161 -15 -4 -30 -3 -35 2
-4 5 -10 75 -12 157 -5 161 -4 161 52 132z"/>
<path d="M3443 963 c-9 -3 -13 -27 -13 -69 l0 -64 -40 0 -39 0 -3 63 c-3 58
-4 62 -28 62 l-24 0 -2 -143 c-1 -120 1 -145 14 -149 30 -12 45 11 46 72 l1
60 38 3 37 3 0 -70 c0 -61 3 -70 20 -76 11 -3 24 -4 28 -1 10 6 7 289 -2 305
-8 12 -13 12 -33 4z"/>
<path d="M3105 927 c-57 -57 -60 -169 -5 -230 25 -28 35 -32 79 -32 39 0 56 5
73 22 28 28 13 52 -20 34 -51 -27 -95 0 -107 68 -14 84 25 136 87 112 18 -7
29 -6 37 2 17 17 14 25 -19 42 -48 25 -88 19 -125 -18z"/>
<path d="M3582 944 c-71 -49 -71 -212 0 -258 64 -41 122 -28 158 36 19 34 22
50 17 102 -2 33 -10 73 -17 88 -21 45 -113 64 -158 32z m104 -49 c10 -16 17
-49 18 -90 1 -54 -2 -68 -21 -87 -19 -18 -26 -20 -47 -10 -38 17 -59 66 -54
124 8 81 68 118 104 63z"/>
<path d="M3864 945 c-68 -29 -95 -103 -70 -190 18 -58 35 -77 88 -94 45 -15
80 -2 112 42 39 52 23 214 -22 232 -43 18 -81 22 -108 10z m87 -73 c6 -15 11
-53 12 -85 1 -50 -2 -62 -21 -77 -66 -54 -134 79 -87 170 25 48 76 44 96 -8z"/>
<path d="M4056 944 c-3 -9 -6 -76 -6 -150 l0 -134 65 0 c57 0 65 2 65 19 0 20
-18 31 -51 31 -18 0 -19 8 -19 119 0 99 -3 120 -16 125 -24 9 -31 7 -38 -10z"/>
<path d="M2208 935 c-38 -21 -58 -65 -58 -127 0 -70 25 -118 73 -142 109 -53
188 58 146 207 -5 20 -21 44 -34 53 -35 23 -95 27 -127 9z m91 -38 c6 -8 16
-37 22 -65 23 -96 -19 -166 -76 -128 -47 31 -59 143 -19 187 20 22 57 25 73 6z"/>
<path d="M2468 933 c-38 -24 -58 -70 -59 -137 -3 -96 61 -158 145 -142 40 8
61 30 70 75 3 19 14 40 24 47 29 21 1 35 -64 32 -44 -2 -59 -7 -59 -18 0 -9
11 -16 26 -18 22 -3 25 -7 21 -33 -2 -16 -9 -32 -14 -35 -14 -9 -54 4 -72 22
-22 21 -22 122 0 152 20 28 72 29 107 2 48 -38 66 -13 24 36 -30 35 -108 44
-149 17z"/>
<path d="M2847 604 c-4 -4 -7 -42 -7 -85 l0 -78 -34 -6 c-66 -13 -71 -8 -74
77 -3 79 -10 92 -49 82 -18 -5 -19 -17 -20 -185 -1 -195 0 -198 52 -185 24 6
25 9 25 86 l0 80 45 0 44 0 3 -82 c3 -80 4 -82 31 -91 16 -5 32 -5 36 -1 4 5
5 95 2 199 -6 182 -7 190 -26 193 -12 2 -24 0 -28 -4z"/>
<path d="M2445 581 c-48 -29 -64 -54 -76 -115 -31 -154 61 -273 184 -237 54
17 67 28 67 57 0 27 -14 30 -50 9 -37 -21 -56 -18 -90 12 -26 23 -32 38 -37
84 -11 109 26 160 100 137 68 -21 92 15 33 51 -41 26 -92 27 -131 2z"/>
<path d="M3530 511 c-12 -8 -14 -33 -12 -145 3 -124 5 -136 21 -136 25 0 31
19 31 93 l0 62 31 -55 c16 -30 43 -68 59 -84 24 -25 31 -27 44 -16 13 10 16
37 16 146 l0 134 -30 0 -31 0 6 -107 6 -108 -51 100 c-27 55 -50 106 -50 113
0 14 -18 15 -40 3z"/>
<path d="M2940 491 c0 -11 5 -32 12 -48 6 -15 23 -68 38 -118 l26 -90 35 0 34
0 22 105 c38 184 37 170 9 170 -28 0 -26 5 -50 -145 -14 -86 -17 -85 -41 15
-29 119 -34 130 -61 130 -17 0 -24 -6 -24 -19z"/>
<path d="M3196 494 c-3 -9 -9 -40 -12 -69 -4 -34 -12 -56 -21 -60 -11 -4 -12
-9 -5 -18 7 -8 7 -29 0 -65 -12 -58 -9 -67 20 -58 15 5 22 19 27 57 6 44 10
50 29 47 16 -2 25 -15 35 -50 13 -43 18 -48 43 -48 34 0 35 7 4 95 -14 39 -32
96 -41 128 -14 52 -18 57 -44 57 -17 0 -31 -6 -35 -16z m49 -101 c5 -26 3 -33
-9 -33 -12 0 -16 11 -16 48 1 50 12 43 25 -15z"/>
<path d="M3366 495 c-3 -9 -6 -73 -6 -141 l0 -124 66 0 c57 0 65 2 62 17 -2
12 -14 19 -36 21 -36 4 -35 -1 -36 152 -1 79 -3 85 -22 88 -13 2 -24 -4 -28
-13z"/>
<path d="M3792 478 c-37 -37 -49 -95 -33 -154 13 -49 40 -79 84 -93 73 -24
127 31 127 130 0 104 -34 149 -113 149 -26 0 -43 -8 -65 -32z m108 -23 c7 -8
15 -46 18 -84 4 -60 2 -71 -17 -90 -64 -64 -138 100 -76 169 22 24 58 26 75 5z"/>
<path d="M3986 502 c-3 -5 8 -46 23 -93 15 -46 34 -104 42 -129 12 -40 18 -45
46 -48 37 -4 33 -14 67 160 22 112 22 113 3 116 -27 5 -33 -8 -47 -97 -21
-135 -21 -135 -51 -24 -15 56 -30 106 -34 112 -7 13 -42 15 -49 3z"/>
</g>
</svg>
